<svg width="293" height="28" viewBox="0 0 293 28" fill="none" xmlns="http://www.w3.org/2000/svg">
<path d="M131.917 12.975L126.321 1.6375C125.823 0.625 124.934 0 123.987 0H89.1435C88.1962 0 87.3075 0.625 86.8095 1.6375L81.204 12.975C78.3134 18.825 80.872 26.9625 86.2724 27.9C86.663 27.9625 87.0634 28 87.454 28C90.0028 28 92.2685 26.575 93.8212 24.375C95.3739 26.575 97.6396 28 100.188 28C102.737 28 105.003 26.575 106.556 24.375C108.108 26.575 110.374 28 112.923 28C115.481 28 117.737 26.575 119.29 24.375C120.852 26.575 123.108 28 125.657 28C126.058 28 126.448 27.9625 126.839 27.9C132.259 26.975 134.827 18.8375 131.927 12.975H131.917Z" fill="#7B462F"/>
<path d="M171.917 12.975L166.321 1.6375C165.823 0.625 164.934 0 163.987 0H129.143C128.196 0 127.308 0.625 126.809 1.6375L121.204 12.975C118.313 18.825 120.872 26.9625 126.272 27.9C126.663 27.9625 127.063 28 127.454 28C130.003 28 132.268 26.575 133.821 24.375C135.374 26.575 137.64 28 140.188 28C142.737 28 145.003 26.575 146.556 24.375C148.108 26.575 150.374 28 152.923 28C155.481 28 157.737 26.575 159.29 24.375C160.852 26.575 163.108 28 165.657 28C166.058 28 166.448 27.9625 166.839 27.9C172.259 26.975 174.827 18.8375 171.927 12.975H171.917Z" fill="#7B462F"/>
<path d="M51.9169 12.975L46.3212 1.6375C45.8231 0.625 44.9345 0 43.9872 0H9.14346C8.19619 0 7.30752 0.625 6.80948 1.6375L1.20401 12.975C-1.68662 18.825 0.871976 26.9625 6.27237 27.9C6.66299 27.9625 7.06338 28 7.45401 28C10.0028 28 12.2685 26.575 13.8212 24.375C15.3739 26.575 17.6396 28 20.1884 28C22.7372 28 25.0028 26.575 26.5556 24.375C28.1083 26.575 30.3739 28 32.9228 28C35.4814 28 37.7372 26.575 39.2899 24.375C40.8524 26.575 43.1083 28 45.6571 28C46.0575 28 46.4482 27.9625 46.8388 27.9C52.2587 26.975 54.8271 18.8375 51.9267 12.975H51.9169Z" fill="#7B462F"/>
<path d="M210.917 12.975L205.321 1.6375C204.823 0.625 203.934 0 202.987 0H168.143C167.196 0 166.308 0.625 165.809 1.6375L160.204 12.975C157.313 18.825 159.872 26.9625 165.272 27.9C165.663 27.9625 166.063 28 166.454 28C169.003 28 171.268 26.575 172.821 24.375C174.374 26.575 176.64 28 179.188 28C181.737 28 184.003 26.575 185.556 24.375C187.108 26.575 189.374 28 191.923 28C194.481 28 196.737 26.575 198.29 24.375C199.852 26.575 202.108 28 204.657 28C205.058 28 205.448 27.9625 205.839 27.9C211.259 26.975 213.827 18.8375 210.927 12.975H210.917Z" fill="#7B462F"/>
<path d="M91.9169 12.975L86.3212 1.6375C85.8231 0.625 84.9345 0 83.9872 0H49.1435C48.1962 0 47.3075 0.625 46.8095 1.6375L41.204 12.975C38.3134 18.825 40.872 26.9625 46.2724 27.9C46.663 27.9625 47.0634 28 47.454 28C50.0028 28 52.2685 26.575 53.8212 24.375C55.3739 26.575 57.6396 28 60.1884 28C62.7372 28 65.0028 26.575 66.5556 24.375C68.1083 26.575 70.3739 28 72.9228 28C75.4814 28 77.7372 26.575 79.2899 24.375C80.8524 26.575 83.1083 28 85.6571 28C86.0575 28 86.4482 27.9625 86.8388 27.9C92.2587 26.975 94.8271 18.8375 91.9267 12.975H91.9169Z" fill="#7B462F"/>
<path d="M250.917 12.975L245.321 1.6375C244.823 0.625 243.934 0 242.987 0H208.143C207.196 0 206.308 0.625 205.809 1.6375L200.204 12.975C197.313 18.825 199.872 26.9625 205.272 27.9C205.663 27.9625 206.063 28 206.454 28C209.003 28 211.268 26.575 212.821 24.375C214.374 26.575 216.64 28 219.188 28C221.737 28 224.003 26.575 225.556 24.375C227.108 26.575 229.374 28 231.923 28C234.481 28 236.737 26.575 238.29 24.375C239.852 26.575 242.108 28 244.657 28C245.058 28 245.448 27.9625 245.839 27.9C251.259 26.975 253.827 18.8375 250.927 12.975H250.917Z" fill="#7B462F"/>
<path d="M290.917 12.975L285.321 1.6375C284.823 0.625 283.934 0 282.987 0H248.143C247.196 0 246.308 0.625 245.809 1.6375L240.204 12.975C237.313 18.825 239.872 26.9625 245.272 27.9C245.663 27.9625 246.063 28 246.454 28C249.003 28 251.268 26.575 252.821 24.375C254.374 26.575 256.64 28 259.188 28C261.737 28 264.003 26.575 265.556 24.375C267.108 26.575 269.374 28 271.923 28C274.481 28 276.737 26.575 278.29 24.375C279.852 26.575 282.108 28 284.657 28C285.058 28 285.448 27.9625 285.839 27.9C291.259 26.975 293.827 18.8375 290.927 12.975H290.917Z" fill="#7B462F"/>
</svg>
