<svg width="70" height="70" viewBox="0 0 70 70" fill="none" xmlns="http://www.w3.org/2000/svg">
<circle cx="35" cy="35" r="35" fill="#7EA421"/>
<g clip-path="url(#clip0_1354_200)">
<path d="M43.7031 23.1992C44.5894 22.3129 44.5894 20.8735 43.7031 19.9872C42.8168 19.1009 41.3774 19.1009 40.4911 19.9872L30.7561 29.7294L26.6863 25.6595C25.8 24.7732 24.3606 24.7732 23.4743 25.6595C22.588 26.5458 22.588 27.9851 23.4743 28.8714L29.1466 34.5437C30.0329 35.43 31.4722 35.43 32.3585 34.5437L43.7031 23.1992ZM50.5098 32.2748C51.3961 31.3885 51.3961 29.9492 50.5098 29.0629C49.6235 28.1766 48.1842 28.1766 47.2979 29.0629L30.7561 45.6117L23.2829 38.1456C22.3966 37.2593 20.9573 37.2593 20.071 38.1456C19.1847 39.0319 19.1847 40.4712 20.071 41.3575L29.1466 50.4331C30.0329 51.3194 31.4722 51.3194 32.3585 50.4331L50.5098 32.2819V32.2748Z" fill="white"/>
</g>
<defs>
<clipPath id="clip0_1354_200">
<rect width="31.7647" height="36.3025" fill="white" transform="translate(19.4116 17.0588)"/>
</clipPath>
</defs>
</svg>
